# xmcd CD database file
#
# Track frame offsets:
#	150
#	17770
#	30997
#	44827
#	58040
#	73607
#	85175
#	94847
#	106040
#	120700
#
# Disc length: 1813 seconds
#
# Revision: 0
# Processed by: cddbd v1.5.2PL0 Copyright (c) Steve Scherf et al.
# Submitted via: CDex 1.70beta2
#
DISCID=7d07130a
DTITLE=Joao Gilberto - Joao Voz E Violao
DYEAR=1900
DGENRE=Jazz
TTITLE0=Desde Que O Samba E Samba
TTITLE1=Voce Vai Ver
TTITLE2=Eclipse
TTITLE3=Nao Vou Pra Casa
TTITLE4=Desafinado
TTITLE5=Eu Vim Da Bahia
TTITLE6=Coracao Vagabundo
TTITLE7=Da Cor Do Pecado
TTITLE8=Segredo
TTITLE9=Chega De Saudade
EXTD=
EXTT0=
EXTT1=
EXTT2=
EXTT3=
EXTT4=
EXTT5=
EXTT6=
EXTT7=
EXTT8=
EXTT9=
PLAYORDER=
